<?xml version="1.0" encoding="utf-8"?>
<!-- Generator: Adobe Illustrator 24.1.3, SVG Export Plug-In . SVG Version: 6.00 Build 0)  -->
<svg version="1.1" xmlns="http://www.w3.org/2000/svg" xmlns:xlink="http://www.w3.org/1999/xlink" x="0px" y="0px"
	 viewBox="0 0 595.3 841.9" style="enable-background:new 0 0 595.3 841.9;" xml:space="preserve">
<style type="text/css">
	.st0{display:none;}
	.st1{fill:#8C8C8C;}
	.st2{fill:none;stroke:#231F20;stroke-width:3;stroke-miterlimit:10;}
	.st3{fill:#231F20;}
	.st4{fill:#FCB300;}
	.st5{display:inline;fill:none;stroke:#231F20;stroke-width:2;stroke-miterlimit:10;}
	.st6{display:inline;fill:#231F20;}
	.st7{display:inline;fill:#FFFFFF;}
	.st8{fill:#022374;}
	.st9{fill:none;}
	.st10{font-family:'Stencil';}
	.st11{font-size:72px;}
	.st12{fill:#FFFFFF;}
	.st13{fill:#FBB300;}
	.st14{font-family:'SegoeUIHistoric';}
	.st15{font-size:36px;}
	.st16{font-size:48px;}
</style>
<g id="Layer_1" class="st0">
	
		<image style="display:inline;overflow:visible;opacity:0.53;" width="640" height="640" xlink:href="../../../../logo/+257 69 56 79 67 20240528_105252.jpg"  transform="matrix(0.8156 0 0 0.8156 30 159.9449)">
	</image>
</g>
<g id="gris">
	<path class="st1" d="M331.2,342l-20,76.2c-3.3-0.6-6.5-2.1-9.2-4.5l-21.2-18.6c-8.1-7-8.9-19.3-1.8-27.3l16.1-18.5
		C302.1,341.4,323.2,335.1,331.2,342z"/>
</g>
<g id="noir">
	<circle class="st2" cx="86.2" cy="472.4" r="28.2"/>
	<circle class="st2" cx="208.4" cy="472.4" r="28.2"/>
	<polygon class="st3" points="288.3,369.1 288.3,393.4 270.6,393.4 270.6,389.8 196.8,426.8 184.7,416.3 270.6,373.3 270.6,369.1 	
		"/>
</g>
<g id="jaune">
	<circle class="st4" cx="86.2" cy="472.4" r="13.4"/>
	<circle class="st4" cx="208.4" cy="472.4" r="13.4"/>
	<path class="st4" d="M55.7,461.5H34.5c0,0-8.5-10,0-20.8H44v-23.2c0,0,2.5-7.3,26.1-9.7H112v-24.4c0,0-2.6-2.3,0-4.1h10l7.3-5.5
		h38.5l-12.3,9.3h-39.1v35.4h17.9l5.4,13.1h12.8l6.3-13.4l17.3-7.9h8.6c0,0,14.6,13.4,16.7,27.1c0,0-29.4,1.3-26.9,30.5h-53.7
		c0,0-5.2-16.1-15.7-25c0,0-18.6-11.1-38.6,3.3C66.6,446.1,62,449.8,55.7,461.5z"/>
</g>
<g id="globe" class="st0">
	<circle class="st5" cx="346.3" cy="413" r="39.2"/>
	<path class="st5" d="M332.2,376.4c0,0-13.8,25-10.1,44.5"/>
	<path class="st5" d="M352.3,451.6c0,0-15.9,2.8-25.5-13.3"/>
	<path class="st5" d="M359.4,411.3c0,0-7.8-25.9-24.5-34.9c0,0-0.8,30,4.7,41.3"/>
	<path class="st5" d="M354.5,451.2c0,0-6.6-1.6-10-15.2"/>
	<path class="st5" d="M368.6,445.1c0,0,3.1-6.5-3.1-16.6"/>
	<path class="st5" d="M375,402.8c0,0-5.7-23.4-40.1-26.4"/>
	<path class="st5" d="M375,438.3c0,0,7.6-8,5.7-20.6"/>
	<path class="st5" d="M318.1,385.8c0,0,7.6,8.1,26.4,0c0,0,3.8,0.2,13.1-10.3"/>
	<path class="st5" d="M308.2,403.8c0,0,3.1,11.6,29.7,6.6c0,0,22.2-2.7,33.4-15.2c0,0,2.3-1.5,4.8-5.5"/>
	<path class="st5" d="M323.9,445.1c0,0,24.4,8.5,56-12.1"/>
	<path class="st6" d="M308.2,422.9c0,0,57.2,8.6,78-29.6l2.1,12.5c0,0-13.9,36.9-74.4,29.2L308.2,422.9z"/>
	<polygon class="st7" points="326,431.6 316.8,430.8 316.8,428.8 326,428.8 	"/>
	
		<rect x="336.9" y="427" transform="matrix(0.9902 -0.1398 0.1398 0.9902 -56.5249 52.0207)" class="st7" width="10.3" height="2.8"/>
	
		<rect x="357.6" y="421" transform="matrix(0.8918 -0.4525 0.4525 0.8918 -151.8545 209.8443)" class="st7" width="10.3" height="2.8"/>
	<polygon class="st7" points="383.2,407.5 376.9,414.1 375.5,412.4 382.2,406.1 	"/>
</g>
<g id="house">
	<polygon class="st8" points="456,418.3 450.1,419 449.6,474.2 402.4,474.2 401.7,418.9 396.9,418.3 427.4,380.9 	"/>
	<rect x="236.2" y="420" class="st9" width="278.6" height="63.7"/>
	<text transform="matrix(1 0 0 1 236.248 467.9814)"><tspan x="0" y="0" class="st8 st10 st11">Gl  b</tspan><tspan x="167.2" y="0" class="st12 st10 st11">a</tspan><tspan x="211.8" y="0" class="st8 st10 st11">l</tspan></text>
	<text transform="matrix(0.933 -0.3599 0.3599 0.933 323.5446 461.5163)" class="st13 st10 st11">O</text>
	<rect x="243.1" y="477.4" class="st9" width="346.7" height="48.2"/>
	<text transform="matrix(1 0 0 1 243.1465 504.0476)" class="st8 st14 st15">Engineering Services</text>
	<text transform="matrix(1 0 0 1 76.7794 408.0956)" class="st8 st10 st16">G</text>
	<text transform="matrix(1 0 0 1 174.1238 408.0952)" class="st8 st10 st16">S</text>
	<text transform="matrix(1 0 0 1 125.4741 423.7169)" class="st8 st10 st16">E</text>
</g>
</svg>
